<svg id="Ebene_1" data-name="Ebene 1" xmlns="http://www.w3.org/2000/svg" viewBox="0 0 2423.07 342.69"><defs><style>.cls-1{fill:#fff;}</style></defs><title>dhl-logo-white</title><path class="cls-1" d="M464.6,607.22,387.19,712.4H809.1c21.33,0,21.07,8,10.64,22.24-10.59,14.36-28.3,39.21-39.1,53.84-5.48,7.4-15.38,20.86,17.39,20.86H970.57l51.13-69.49c31.71-43,2.77-132.58-110.61-132.58l-446.49,0Z" transform="translate(-38.49 -607.22)"/><path class="cls-1" d="M355.86,949.9,511.37,738.58h193c21.34,0,21.07,8.08,10.64,22.24l-39.37,53.63c-5.48,7.39-15.38,20.85,17.4,20.85H951.47C930,864.78,860.23,949.9,735.09,949.9Zm890.52-114.65L1162.05,949.9H939.61l84.33-114.65Zm340.72-26h-544l148.76-202.06h222.34L1329,723.09h99.23l85.34-115.87h222.34Zm-19.1,26L1483.67,949.9H1261.33l84.33-114.65ZM38.49,880.47H366.12l-17.87,24.32H38.49Zm0-45.22H399.43L381.5,859.56h-343Zm0,90.44H332.87L315.05,949.9H38.49Zm2423.07-20.9H2135.1L2153,880.47h308.53Zm0,45.11H2102l17.77-24.21h341.84ZM2186.28,835.25h275.28v24.37H2168.41Zm-142.48-228L1895,809.28H1659.4l148.87-202.06Zm-403.44,228s-16.23,22.24-24.16,32.88c-27.88,37.77-3.24,81.72,87.9,81.72h357.1l84.33-114.6Z" transform="translate(-38.49 -607.22)"/></svg>